<svg width="350" height="350" viewBox="0 0 350 350" fill="none" xmlns="http://www.w3.org/2000/svg">
<rect width="350" height="350" rx="80" fill="black"/>
<path d="M155.319 62.1725C152.412 62.1718 149.533 62.744 146.847 63.8562C144.161 64.9685 141.72 66.5991 139.664 68.6548C137.608 70.7106 135.978 73.1513 134.866 75.8374C133.753 78.5235 133.181 81.4025 133.182 84.3098L133.182 90.342L127.15 90.342C121.278 90.342 115.648 92.6743 111.496 96.8259C107.345 100.977 105.012 106.608 105.012 112.479C105.012 118.35 107.345 123.981 111.496 128.133C115.648 132.284 121.278 134.617 127.15 134.617L133.182 134.617L177.456 134.617L177.456 90.342L177.456 84.3098C177.457 81.4025 176.885 78.5235 175.773 75.8374C174.66 73.1513 173.03 70.7106 170.974 68.6548C168.918 66.5991 166.478 64.9685 163.792 63.8562C161.105 62.744 158.226 62.1718 155.319 62.1725V62.1725Z" stroke="white" stroke-width="17" stroke-linecap="round" stroke-linejoin="round"/>
<path d="M199.572 62.1725C202.48 62.1718 205.359 62.744 208.045 63.8562C210.731 64.9685 213.172 66.5991 215.227 68.6548C217.283 70.7106 218.914 73.1513 220.026 75.8374C221.138 78.5235 221.71 81.4025 221.71 84.3098L221.71 90.342L227.742 90.342C233.613 90.342 239.244 92.6743 243.395 96.8259C247.547 100.977 249.879 106.608 249.879 112.479C249.879 118.35 247.547 123.981 243.395 128.133C239.244 132.284 233.613 134.617 227.742 134.617L221.71 134.617L177.435 134.617L177.435 90.342L177.435 84.3098C177.434 81.4025 178.007 78.5235 179.119 75.8374C180.231 73.1513 181.862 70.7106 183.917 68.6548C185.973 66.5991 188.414 64.9685 191.1 63.8562C193.786 62.744 196.665 62.1718 199.572 62.1725V62.1725Z" stroke="white" stroke-width="17" stroke-linecap="round" stroke-linejoin="round"/>
<path fill-rule="evenodd" clip-rule="evenodd" d="M111 119C97.7452 119 87 129.745 87 143V246C87 259.255 97.7452 270 111 270H245C258.255 270 269 259.255 269 246V143C269 129.745 258.255 119 245 119H111ZM184 161C184 156.582 180.418 153 176 153C171.582 153 168 156.582 168 161V214C168 218.418 171.582 222 176 222H206C210.418 222 214 218.418 214 214C214 209.582 210.418 206 206 206H184V161ZM238 164C238 170.627 232.627 176 226 176C219.373 176 214 170.627 214 164C214 157.373 219.373 152 226 152C232.627 152 238 157.373 238 164ZM129.546 176.169C136.174 176.169 141.546 170.797 141.546 164.169C141.546 157.542 136.174 152.169 129.546 152.169C122.919 152.169 117.546 157.542 117.546 164.169C117.546 170.797 122.919 176.169 129.546 176.169Z" fill="white"/>
</svg>
